<?xml version="1.0" encoding="iso-8859-1"?>
<!-- Generator: Adobe Illustrator 10.0, SVG Export Plug-In . SVG Version: 3.0.0 Build 76)  -->
<!DOCTYPE svg PUBLIC "-//W3C//DTD SVG 1.0//EN"    "http://www.w3.org/TR/2001/REC-SVG-20010904/DTD/svg10.dtd" [
	<!ENTITY ns_flows "http://ns.adobe.com/Flows/1.0/">
	<!ENTITY ns_extend "http://ns.adobe.com/Extensibility/1.0/">
	<!ENTITY ns_ai "http://ns.adobe.com/AdobeIllustrator/10.0/">
	<!ENTITY ns_svg "http://www.w3.org/2000/svg">
	<!ENTITY ns_xlink "http://www.w3.org/1999/xlink">
]>
<svg  xmlns:x="&ns_extend;" xmlns:i="&ns_ai;" 
	 xmlns="&ns_svg;" xmlns:xlink="&ns_xlink;" xmlns:a="http://ns.adobe.com/AdobeSVGViewerExtensions/3.0/" width="213" height="24"
	 viewBox="0.075 0 213 24" overflow="visible" enable-background="new 0.075 0 213 24" xml:space="preserve">
	<g id="&#x30EC;&#x30A4;&#x30E4;&#x30FC;_1_2_">
		<path fill="none" d="M211.857,23h0.817l0.443-0.687L211.857,23z"/>
		<path d="M102.439,9l-9.677,15h-9.644l9.677-15H102.439z"/>
		<path d="M89.225,9l-9.677,15H69.333L79.01,9H89.225z"/>
		<path d="M75.439,9l-9.677,15h-9.644l9.677-15H75.439z"/>
		<path d="M52.01,9h10.215l-9.677,15H42.333L52.01,9z"/>
		<path d="M156.439,9l-9.677,15h-9.644l9.677-15H156.439z"/>
		<path d="M143.225,9l-9.677,15h-10.215l9.677-15H143.225z"/>
		<path d="M129.439,9l-9.677,15h-9.644l9.677-15H129.439z"/>
		<path d="M106.01,9h10.215l-9.677,15H96.333L106.01,9z"/>
		<path d="M183.439,9l-9.677,15h-9.644l9.677-15H183.439z"/>
		<path d="M15.483,0L0,24h6.333L21.816,0H15.483z M25.15,0L9.667,24h27.701L48.537,6.687L48.98,6h126.672l-1.075,1.666h9.644
			L185.296,6l3.871-6H25.15z"/>
		<path d="M160.01,9h10.215l-9.677,15h-10.215L160.01,9z"/>
	</g>
</svg>
