<?xml version="1.0" encoding="iso-8859-1"?>
<!-- Generator: Adobe Illustrator 10.0, SVG Export Plug-In . SVG Version: 3.0.0 Build 76)  -->
<!DOCTYPE svg PUBLIC "-//W3C//DTD SVG 1.0//EN"    "http://www.w3.org/TR/2001/REC-SVG-20010904/DTD/svg10.dtd" [
	<!ENTITY ns_flows "http://ns.adobe.com/Flows/1.0/">
	<!ENTITY ns_extend "http://ns.adobe.com/Extensibility/1.0/">
	<!ENTITY ns_ai "http://ns.adobe.com/AdobeIllustrator/10.0/">
	<!ENTITY ns_svg "http://www.w3.org/2000/svg">
	<!ENTITY ns_xlink "http://www.w3.org/1999/xlink">
]>
<svg  xmlns:x="&ns_extend;" xmlns:i="&ns_ai;" 
	 xmlns="&ns_svg;" xmlns:xlink="&ns_xlink;" xmlns:a="http://ns.adobe.com/AdobeSVGViewerExtensions/3.0/" width="614" height="72"
	 viewBox="0 0 614 72" overflow="visible" enable-background="new 0 0 614 72" xml:space="preserve">
	<g id="&#x30EC;&#x30A4;&#x30E4;&#x30FC;_1_2_">
		<path d="M607.516,36h-70.691L514.042,0.687L513.6,0h-75.771l-4.086,6.333H177.002L172.916,0H97.146L73.921,36H5.807L0,45h80.685
			l23.225-36h70.727l3.871,6h-68.941L90.212,45H191.08l17.419,27h236.859l17.419-27h59.368L502.79,15h-70.552l0.228-0.353L436.109,9
			h70.727l23.225,36h83.77C611.747,41.995,609.64,38.996,607.516,36z M95.718,42l15.483-24h210.45l11.612,18h87.689l3.871,6H320.957
			c-3.243-5.027-6.534-10.028-9.895-15H181.06l7.742,12h54l1.936,3H95.718z M190.436,36l-3.871-6h50.43l3.871,6H190.436z
			 M414.739,69l9.677-15h11.255l-9.677,15H414.739z M443.723,69h-14.158l9.677-15H453.4L443.723,69z M455.336,51h-44.729
			l-0.443,0.687L398.995,69H210.134L194.65,45h264.556L455.336,51z M501.155,18l15.483,24h-88.245l-5.806-9h-87.689l-9.677-15h7.923
			l5.806,9h10.215l-5.806-9h3.57l5.806,9h9.644l-5.806-9h3.57l5.806,9h10.215l-5.806-9h3.57l5.806,9h9.644l-5.806-9h9.357l5.806,9
			h10.215l-5.806-9h3.57l5.806,9h9.644l-5.806-9H501.155z"/>
	</g>
</svg>
