<?xml version="1.0" encoding="iso-8859-1"?>
<!-- Generator: Adobe Illustrator 10.0, SVG Export Plug-In . SVG Version: 3.0.0 Build 76)  -->
<!DOCTYPE svg PUBLIC "-//W3C//DTD SVG 1.0//EN"    "http://www.w3.org/TR/2001/REC-SVG-20010904/DTD/svg10.dtd" [
	<!ENTITY ns_flows "http://ns.adobe.com/Flows/1.0/">
	<!ENTITY ns_extend "http://ns.adobe.com/Extensibility/1.0/">
	<!ENTITY ns_ai "http://ns.adobe.com/AdobeIllustrator/10.0/">
	<!ENTITY ns_svg "http://www.w3.org/2000/svg">
	<!ENTITY ns_xlink "http://www.w3.org/1999/xlink">
]>
<svg  xmlns:x="&ns_extend;" xmlns:i="&ns_ai;" 
	 xmlns="&ns_svg;" xmlns:xlink="&ns_xlink;" xmlns:a="http://ns.adobe.com/AdobeSVGViewerExtensions/3.0/" width="99" height="99"
	 viewBox="-0.14 -0.473 99 99" overflow="visible" enable-background="new -0.14 -0.473 99 99" xml:space="preserve">
	<g id="&#x30EC;&#x30A4;&#x30E4;&#x30FC;_1_2_">
		<path d="M95.388,68.328c0-1.185,0-37.083,0-38.269V68.328z"/>
		<path d="M30.06,95.388c1.185,0,37.084,0,38.269,0H30.06z"/>
		<path d="M3,30.06c0,1.185,0,37.083,0,38.269V30.06z"/>
		<path d="M68.949,0H28.817L0,28.817V69.57l28.817,28.817H69.57L98.388,69.57V28.817L69.57,0H68.949z M96.888,68.949L68.949,96.888
			H29.438L1.5,68.949V29.438L29.438,1.5h38.89h0.621l27.938,27.938V68.949z"/>
		<path d="M68.328,1.5h-38.89L1.5,29.438v39.511l27.938,27.938h39.511l27.938-27.938V29.438L68.949,1.5H68.328z M95.388,30.06
			c0,1.185,0,37.084,0,38.269l0,0l-26.91,26.91l-0.149,0.149c-1.185,0-37.083,0-38.269,0l0,0l-26.91-26.91L3,68.328
			c0-1.185,0-37.083,0-38.269l0,0l26.91-26.91L30.06,3c0.075,0,0.289,0,0.621,0c4.631,0,32.569,0,37.026,0c0.389,0,0.621,0,0.621,0
			l0,0l26.91,26.91L95.388,30.06z"/>
		<path d="M67.707,4.5c-1.183,0-35.843,0-37.026,0C29.845,5.336,5.336,29.845,4.5,30.681c0,1.183,0,35.843,0,37.026
			c0.836,0.836,25.345,25.344,26.181,26.181c1.183,0,35.843,0,37.026,0c0.836-0.836,25.344-25.345,26.181-26.181
			c0-1.183,0-35.843,0-37.026C93.051,29.845,68.543,5.336,67.707,4.5z M92.388,31.302c0,1.181,0,34.603,0,35.784
			c-0.835,0.835-24.466,24.466-25.302,25.302c-1.181,0-34.603,0-35.784,0C30.466,91.552,6.835,67.921,6,67.086
			c0-1.181,0-34.603,0-35.784C6.835,30.466,30.466,6.835,31.302,6c1.181,0,34.603,0,35.784,0
			C67.921,6.835,91.552,30.466,92.388,31.302z"/>
		<path d="M68.477,95.239l26.91-26.91C94.57,69.145,70.728,92.988,68.477,95.239z"/>
		<path d="M95.239,29.911L68.329,3C69.145,3.817,92.988,27.66,95.239,29.911z"/>
		<path d="M29.911,3.149L3,30.059C3.817,29.243,27.66,5.4,29.911,3.149z"/>
		<path d="M3.149,68.477l26.91,26.91C29.243,94.571,5.4,70.728,3.149,68.477z"/>
	</g>
</svg>
