<?xml version="1.0" encoding="iso-8859-1"?>
<!-- Generator: Adobe Illustrator 10.0, SVG Export Plug-In . SVG Version: 3.0.0 Build 76)  -->
<!DOCTYPE svg PUBLIC "-//W3C//DTD SVG 1.0//EN"    "http://www.w3.org/TR/2001/REC-SVG-20010904/DTD/svg10.dtd" [
	<!ENTITY ns_flows "http://ns.adobe.com/Flows/1.0/">
	<!ENTITY ns_extend "http://ns.adobe.com/Extensibility/1.0/">
	<!ENTITY ns_ai "http://ns.adobe.com/AdobeIllustrator/10.0/">
	<!ENTITY ns_svg "http://www.w3.org/2000/svg">
	<!ENTITY ns_xlink "http://www.w3.org/1999/xlink">
]>
<svg  xmlns:x="&ns_extend;" xmlns:i="&ns_ai;" 
	 xmlns="&ns_svg;" xmlns:xlink="&ns_xlink;" xmlns:a="http://ns.adobe.com/AdobeSVGViewerExtensions/3.0/" width="39" height="55"
	 viewBox="0.064 0 39 55" overflow="visible" enable-background="new 0.064 0 39 55" xml:space="preserve">
	<g id="&#x30EC;&#x30A4;&#x30E4;&#x30FC;_1_2_">
		<g>
			<path d="M6.797,21.796l-2.354,6.777l8.997,26.313l5.39,0.014V40.565c0,0-4.069-0.01-4.674-0.012
				c-0.223-0.651-6.883-20.128-6.883-20.128L6.797,21.796z M7.266,23.495c0.809,2.364,6.174,18.057,6.174,18.057
				s3.6,0.01,4.39,0.012c0,0.888,0,11.441,0,12.334c-0.723-0.002-3.142-0.009-3.674-0.01c-0.223-0.653-8.546-24.994-8.655-25.313
				C5.586,28.332,6.686,25.164,7.266,23.495z"/>
			<path d="M31.586,21.781c0,0-6.309,18.168-6.535,18.818c-0.603-0.002-4.554-0.012-4.554-0.012v14.333l5.265,0.014l9.122-26.27
				l-2.822-8.255L31.586,21.781z M25.879,41.265c0,0,5.355-15.421,6.175-17.784c0.577,1.686,1.688,4.937,1.772,5.183
				c-0.11,0.317-8.548,24.617-8.775,25.27c-0.528-0.001-2.841-0.008-3.554-0.01c0-0.888,0-11.44,0-12.333
				c0.788,0.002,4.265,0.012,4.265,0.012L25.879,41.265z"/>
			<path d="M18.33,0H6.542L0,18.836l3.396,9.934c0,0,8.447-24.317,8.675-24.973c0.638,0.002,6.759,0.019,6.759,0.019V0H18.33z
				 M17.83,1c0,0.529,0,1.282,0,1.813c-0.856-0.003-6.47-0.019-6.47-0.019s-7.11,20.47-7.956,22.906
				c-0.642-1.877-2.257-6.602-2.347-6.863C1.167,18.524,7.031,1.642,7.253,1C7.891,1,16.945,1,17.83,1z"/>
			<path d="M32.493,0H20.498v3.838c0,0,6.277,0.017,6.917,0.019c0.224,0.655,8.509,24.896,8.509,24.896l3.404-9.802L32.85,0H32.493z
				 M32.135,1c0.221,0.646,6.027,17.634,6.135,17.948c-0.09,0.26-1.691,4.871-2.338,6.733C35.098,23.242,28.13,2.858,28.13,2.858
				s-5.777-0.016-6.633-0.019c0-0.532,0-1.306,0-1.84C22.383,1,31.494,1,32.135,1z"/>
		</g>
	</g>
</svg>
