<?xml version="1.0" encoding="iso-8859-1"?>
<!-- Generator: Adobe Illustrator 10.0, SVG Export Plug-In . SVG Version: 3.0.0 Build 76)  -->
<!DOCTYPE svg PUBLIC "-//W3C//DTD SVG 1.0//EN"    "http://www.w3.org/TR/2001/REC-SVG-20010904/DTD/svg10.dtd" [
	<!ENTITY ns_flows "http://ns.adobe.com/Flows/1.0/">
	<!ENTITY ns_extend "http://ns.adobe.com/Extensibility/1.0/">
	<!ENTITY ns_ai "http://ns.adobe.com/AdobeIllustrator/10.0/">
	<!ENTITY ns_svg "http://www.w3.org/2000/svg">
	<!ENTITY ns_xlink "http://www.w3.org/1999/xlink">
]>
<svg  xmlns:x="&ns_extend;" xmlns:i="&ns_ai;" 
	 xmlns="&ns_svg;" xmlns:xlink="&ns_xlink;" xmlns:a="http://ns.adobe.com/AdobeSVGViewerExtensions/3.0/" width="101" height="101"
	 viewBox="0.11 0.402 101 101" overflow="visible" enable-background="new 0.11 0.402 101 101" xml:space="preserve">
	<g id="&#x30EC;&#x30A4;&#x30E4;&#x30FC;_1_2_">
		<path d="M69.829,4.5l-0.622,0c-4.457,0-32.395,0-37.026,0c-0.332,0-0.546,0-0.621,0l-0.148,0.149
			C29.16,6.9,5.317,30.743,4.501,31.559L4.5,69.828l0.149,0.149c2.251,2.25,26.094,26.094,26.91,26.91l38.269,0l0.149-0.149
			c2.25-2.251,26.093-26.094,26.91-26.91V31.56l-0.148-0.149C94.488,29.16,70.645,5.317,69.829,4.5z M95.388,32.181
			c0,1.183,0,35.843,0,37.026c-0.836,0.836-25.345,25.344-26.181,26.181c-1.183,0-35.843,0-37.026,0
			C31.345,94.551,6.837,70.043,6,69.207c0-1.183,0-35.843,0-37.026C6.837,31.345,31.345,6.836,32.181,6c1.184,0,35.844,0,37.026,0
			C70.043,6.836,94.552,31.345,95.388,32.181z"/>
		<path d="M71.692,101.388l29.695-29.696V29.696L71.692,0h-1.864H29.696L0,29.696v41.996l29.696,29.696H71.692z M1.5,30.317
			C2.34,29.477,29.478,2.34,30.317,1.5c1.204,0,39.511,0,39.511,0s0.69,0,1.243,0c0.84,0.84,27.977,27.977,28.816,28.817
			c0,1.188,0,39.566,0,40.754c-0.84,0.84-27.977,27.977-28.816,28.817c-1.188,0-39.565,0-40.754,0
			C29.478,99.048,2.34,71.911,1.5,71.071C1.5,69.882,1.5,31.505,1.5,30.317z"/>
	</g>
</svg>
