<?xml version="1.0" encoding="iso-8859-1"?>
<!-- Generator: Adobe Illustrator 10.0, SVG Export Plug-In . SVG Version: 3.0.0 Build 76)  -->
<!DOCTYPE svg PUBLIC "-//W3C//DTD SVG 1.0//EN"    "http://www.w3.org/TR/2001/REC-SVG-20010904/DTD/svg10.dtd" [
	<!ENTITY ns_flows "http://ns.adobe.com/Flows/1.0/">
	<!ENTITY ns_extend "http://ns.adobe.com/Extensibility/1.0/">
	<!ENTITY ns_ai "http://ns.adobe.com/AdobeIllustrator/10.0/">
	<!ENTITY ns_svg "http://www.w3.org/2000/svg">
	<!ENTITY ns_xlink "http://www.w3.org/1999/xlink">
]>
<svg  xmlns:x="&ns_extend;" xmlns:i="&ns_ai;" 
	 xmlns="&ns_svg;" xmlns:xlink="&ns_xlink;" xmlns:a="http://ns.adobe.com/AdobeSVGViewerExtensions/3.0/" width="281" height="33"
	 viewBox="0.115 0 281 33" overflow="visible" enable-background="new 0.115 0 281 33" xml:space="preserve">
	<g id="&#x30EC;&#x30A4;&#x30E4;&#x30FC;_1_2_">
		<path d="M211.581,9c0,0-5.05-7.828-5.807-9C204.169,0,76.946,0,75.341,0c-0.756,1.172-5.807,9-5.807,9S5.465,9,3.871,9
			C3.176,10.077,0,15,0,15h99.729c0,0,10.793,16.729,11.613,18c1.568,0,56.864,0,58.433,0c0.82-1.271,11.613-18,11.613-18h99.729
			c0,0-3.176-4.923-3.871-6C275.65,9,211.581,9,211.581,9z"/>
	</g>
</svg>
