<?xml version="1.0" encoding="iso-8859-1"?>
<!-- Generator: Adobe Illustrator 10.0, SVG Export Plug-In . SVG Version: 3.0.0 Build 76)  -->
<!DOCTYPE svg PUBLIC "-//W3C//DTD SVG 1.0//EN"    "http://www.w3.org/TR/2001/REC-SVG-20010904/DTD/svg10.dtd" [
	<!ENTITY ns_flows "http://ns.adobe.com/Flows/1.0/">
	<!ENTITY ns_extend "http://ns.adobe.com/Extensibility/1.0/">
	<!ENTITY ns_ai "http://ns.adobe.com/AdobeIllustrator/10.0/">
	<!ENTITY ns_svg "http://www.w3.org/2000/svg">
	<!ENTITY ns_xlink "http://www.w3.org/1999/xlink">
]>
<svg  xmlns:x="&ns_extend;" xmlns:i="&ns_ai;" 
	 xmlns="&ns_svg;" xmlns:xlink="&ns_xlink;" xmlns:a="http://ns.adobe.com/AdobeSVGViewerExtensions/3.0/" width="499" height="45"
	 viewBox="-0.095 0 499 45" overflow="visible" enable-background="new -0.095 0 499 45" xml:space="preserve">
	<g id="&#x30EC;&#x30A4;&#x30E4;&#x30FC;_1_2_">
		<path d="M476.122,9.687L475.679,9h-77.49l-5.806-9H109.607l-5.806,9H23.226l-5.807,9L0,45h12.57l11.613-18h137.95l11.613,18
			h152.668l11.613-18h136.694l11.613,18h12.57L476.122,9.687z M62.405,24H26.118l3.871-6h36.287L62.405,24z M306.704,30H193.456
			l-2.903-4.5h119.055L306.704,30z M366.285,15l-3.871-6h-42.162l-8.709,13.5H188.618L179.908,9h-42.162l-3.871,6h-30.374
			c2.019-3.13,7.065-10.951,7.741-12h279.506c0.677,1.049,5.722,8.87,7.741,12H366.285z M437.755,24l-3.871-6h35.031l3.871,6
			H437.755z"/>
	</g>
</svg>
