<?xml version="1.0" encoding="iso-8859-1"?>
<!-- Generator: Adobe Illustrator 10.0, SVG Export Plug-In . SVG Version: 3.0.0 Build 76)  -->
<!DOCTYPE svg PUBLIC "-//W3C//DTD SVG 1.0//EN"    "http://www.w3.org/TR/2001/REC-SVG-20010904/DTD/svg10.dtd" [
	<!ENTITY ns_flows "http://ns.adobe.com/Flows/1.0/">
	<!ENTITY ns_extend "http://ns.adobe.com/Extensibility/1.0/">
	<!ENTITY ns_ai "http://ns.adobe.com/AdobeIllustrator/10.0/">
	<!ENTITY ns_svg "http://www.w3.org/2000/svg">
	<!ENTITY ns_xlink "http://www.w3.org/1999/xlink">
]>
<svg  xmlns:x="&ns_extend;" xmlns:i="&ns_ai;" 
	 xmlns="&ns_svg;" xmlns:xlink="&ns_xlink;" xmlns:a="http://ns.adobe.com/AdobeSVGViewerExtensions/3.0/" width="854" height="26"
	 viewBox="0.333 -0.334 854 26" overflow="visible" enable-background="new 0.333 -0.334 854 26" xml:space="preserve">
	<g id="&#x30EC;&#x30A4;&#x30E4;&#x30FC;_1_2_">
		<path d="M844.859,16.666H34.15l3.871-6H9.677L0,25.666h850.666L844.859,16.666z"/>
		<g  a:adobe-knockout="true">
			<path  a:adobe-knockout="false" d="M48.102,0l-9.677,15h4.333l9.677-15H48.102z"/>
			<path  a:adobe-knockout="false" d="M55.831,0l-9.677,15h4.333l9.677-15H55.831z"/>
			<path  a:adobe-knockout="false" d="M63.561,0l-9.677,15h4.333l9.677-15H63.561z"/>
			<path  a:adobe-knockout="false" d="M71.29,0l-9.677,15h4.333l9.677-15H71.29z"/>
			<path  a:adobe-knockout="false" d="M79.019,0l-9.677,15h4.333l9.677-15H79.019z"/>
			<path  a:adobe-knockout="false" d="M86.749,0l-9.677,15h4.333l9.677-15H86.749z"/>
			<path  a:adobe-knockout="false" d="M94.478,0l-9.677,15h4.333l9.677-15H94.478z"/>
			<path  a:adobe-knockout="false" d="M102.208,0l-9.677,15h4.333l9.677-15H102.208z"/>
			<path  a:adobe-knockout="false" d="M109.937,0l-9.677,15h4.333l9.677-15H109.937z"/>
			<path  a:adobe-knockout="false" d="M117.666,0l-9.677,15h4.333l9.677-15H117.666z"/>
			<path  a:adobe-knockout="false" d="M125.396,0l-9.677,15h4.333l9.677-15H125.396z"/>
			<path  a:adobe-knockout="false" d="M133.125,0l-9.677,15h4.333l9.677-15H133.125z"/>
			<path  a:adobe-knockout="false" d="M140.854,0l-9.677,15h4.333l9.677-15H140.854z"/>
			<path  a:adobe-knockout="false" d="M148.583,0l-9.677,15h4.333l9.677-15H148.583z"/>
			<path  a:adobe-knockout="false" d="M156.313,0l-9.677,15h4.333l9.677-15H156.313z"/>
			<path  a:adobe-knockout="false" d="M164.042,0l-9.677,15h4.333l9.677-15H164.042z"/>
			<path  a:adobe-knockout="false" d="M171.771,0l-9.677,15h4.333l9.677-15H171.771z"/>
			<path  a:adobe-knockout="false" d="M179.501,0l-9.677,15h4.333l9.677-15H179.501z"/>
			<path  a:adobe-knockout="false" d="M187.23,0l-9.677,15h4.333l9.677-15H187.23z"/>
			<path  a:adobe-knockout="false" d="M194.96,0l-9.677,15h4.333l9.677-15H194.96z"/>
			<path  a:adobe-knockout="false" d="M202.689,0l-9.677,15h4.333l9.677-15H202.689z"/>
			<path  a:adobe-knockout="false" d="M210.418,0l-9.677,15h4.333l9.677-15H210.418z"/>
			<path  a:adobe-knockout="false" d="M218.148,0l-9.677,15h4.333l9.677-15H218.148z"/>
			<path  a:adobe-knockout="false" d="M225.877,0l-9.677,15h4.333l9.677-15H225.877z"/>
			<path  a:adobe-knockout="false" d="M233.606,0l-9.677,15h4.333l9.677-15H233.606z"/>
			<path  a:adobe-knockout="false" d="M241.336,0l-9.677,15h4.333l9.677-15H241.336z"/>
			<path  a:adobe-knockout="false" d="M249.065,0l-9.677,15h4.333l9.677-15H249.065z"/>
			<path  a:adobe-knockout="false" d="M256.795,0l-9.677,15h4.333l9.677-15H256.795z"/>
			<path  a:adobe-knockout="false" d="M264.524,0l-9.677,15h4.333l9.677-15H264.524z"/>
			<path  a:adobe-knockout="false" d="M272.253,0l-9.677,15h4.333l9.677-15H272.253z"/>
			<path  a:adobe-knockout="false" d="M279.983,0l-9.677,15h4.333l9.677-15H279.983z"/>
			<path  a:adobe-knockout="false" d="M287.712,0l-9.677,15h4.333l9.677-15H287.712z"/>
			<path  a:adobe-knockout="false" d="M295.441,0l-9.677,15h4.333l9.677-15H295.441z"/>
			<path  a:adobe-knockout="false" d="M303.171,0l-9.677,15h4.333l9.677-15H303.171z"/>
			<path  a:adobe-knockout="false" d="M310.9,0l-9.677,15h4.333l9.677-15H310.9z"/>
			<path  a:adobe-knockout="false" d="M318.63,0l-9.677,15h4.333l9.677-15H318.63z"/>
			<path  a:adobe-knockout="false" d="M326.359,0l-9.677,15h4.333l9.677-15H326.359z"/>
			<path  a:adobe-knockout="false" d="M334.088,0l-9.677,15h4.333l9.677-15H334.088z"/>
			<path  a:adobe-knockout="false" d="M341.818,0l-9.677,15h4.333l9.677-15H341.818z"/>
			<path  a:adobe-knockout="false" d="M349.547,0l-9.677,15h4.333l9.677-15H349.547z"/>
			<path  a:adobe-knockout="false" d="M357.276,0L347.6,15h4.333l9.677-15H357.276z"/>
			<path  a:adobe-knockout="false" d="M365.006,0l-9.677,15h4.333l9.677-15H365.006z"/>
			<path  a:adobe-knockout="false" d="M372.735,0l-9.677,15h4.333l9.677-15H372.735z"/>
			<path  a:adobe-knockout="false" d="M380.465,0l-9.677,15h4.333l9.677-15H380.465z"/>
			<path  a:adobe-knockout="false" d="M388.194,0l-9.677,15h4.333l9.677-15H388.194z"/>
			<path  a:adobe-knockout="false" d="M395.923,0l-9.677,15h4.333l9.677-15H395.923z"/>
			<path  a:adobe-knockout="false" d="M403.653,0l-9.677,15h4.333l9.677-15H403.653z"/>
			<path  a:adobe-knockout="false" d="M411.382,0l-9.677,15h4.333l9.677-15H411.382z"/>
			<path  a:adobe-knockout="false" d="M419.111,0l-9.677,15h4.333l9.677-15H419.111z"/>
			<path  a:adobe-knockout="false" d="M426.841,0l-9.677,15h4.333l9.677-15H426.841z"/>
			<path  a:adobe-knockout="false" d="M434.57,0l-9.677,15h4.333l9.677-15H434.57z"/>
			<path  a:adobe-knockout="false" d="M442.3,0l-9.677,15h4.333l9.677-15H442.3z"/>
			<path  a:adobe-knockout="false" d="M450.029,0l-9.677,15h4.333l9.677-15H450.029z"/>
			<path  a:adobe-knockout="false" d="M457.758,0l-9.677,15h4.333l9.677-15H457.758z"/>
			<path  a:adobe-knockout="false" d="M465.488,0l-9.677,15h4.333l9.677-15H465.488z"/>
			<path  a:adobe-knockout="false" d="M473.217,0l-9.677,15h4.333l9.677-15H473.217z"/>
			<path  a:adobe-knockout="false" d="M480.946,0l-9.677,15h4.333l9.677-15H480.946z"/>
			<path  a:adobe-knockout="false" d="M488.676,0l-9.677,15h4.333l9.677-15H488.676z"/>
			<path  a:adobe-knockout="false" d="M496.405,0l-9.677,15h4.333l9.677-15H496.405z"/>
			<path  a:adobe-knockout="false" d="M504.135,0l-9.677,15h4.333l9.677-15H504.135z"/>
			<path  a:adobe-knockout="false" d="M511.864,0l-9.677,15h4.333l9.677-15H511.864z"/>
			<path  a:adobe-knockout="false" d="M519.593,0l-9.677,15h4.333l9.677-15H519.593z"/>
			<path  a:adobe-knockout="false" d="M527.323,0l-9.677,15h4.333l9.677-15H527.323z"/>
			<path  a:adobe-knockout="false" d="M535.052,0l-9.677,15h4.333l9.677-15H535.052z"/>
			<path  a:adobe-knockout="false" d="M542.781,0l-9.677,15h4.333l9.677-15H542.781z"/>
			<path  a:adobe-knockout="false" d="M550.511,0l-9.677,15h4.333l9.677-15H550.511z"/>
			<path  a:adobe-knockout="false" d="M558.24,0l-9.677,15h4.333l9.677-15H558.24z"/>
			<path  a:adobe-knockout="false" d="M565.97,0l-9.677,15h4.333l9.677-15H565.97z"/>
			<path  a:adobe-knockout="false" d="M573.699,0l-9.677,15h4.333l9.677-15H573.699z"/>
			<path  a:adobe-knockout="false" d="M581.428,0l-9.677,15h4.333l9.677-15H581.428z"/>
			<path  a:adobe-knockout="false" d="M589.158,0l-9.677,15h4.333l9.677-15H589.158z"/>
			<path  a:adobe-knockout="false" d="M596.887,0l-9.677,15h4.333l9.677-15H596.887z"/>
			<path  a:adobe-knockout="false" d="M604.616,0l-9.677,15h4.333l9.677-15H604.616z"/>
			<path  a:adobe-knockout="false" d="M612.346,0l-9.677,15h4.333l9.677-15H612.346z"/>
			<path  a:adobe-knockout="false" d="M620.075,0l-9.677,15h4.333l9.677-15H620.075z"/>
			<path  a:adobe-knockout="false" d="M627.805,0l-9.677,15h4.333l9.677-15H627.805z"/>
			<path  a:adobe-knockout="false" d="M635.534,0l-9.677,15h4.333l9.677-15H635.534z"/>
			<path  a:adobe-knockout="false" d="M643.263,0l-9.677,15h4.333l9.677-15H643.263z"/>
			<path  a:adobe-knockout="false" d="M650.993,0l-9.677,15h4.333l9.677-15H650.993z"/>
			<path  a:adobe-knockout="false" d="M658.722,0l-9.677,15h4.333l9.677-15H658.722z"/>
			<path  a:adobe-knockout="false" d="M666.451,0l-9.677,15h4.333l9.677-15H666.451z"/>
			<path  a:adobe-knockout="false" d="M674.181,0l-9.677,15h4.333l9.677-15H674.181z"/>
			<path  a:adobe-knockout="false" d="M681.91,0l-9.677,15h4.333l9.677-15H681.91z"/>
			<path  a:adobe-knockout="false" d="M689.64,0l-9.677,15h4.333l9.677-15H689.64z"/>
			<path  a:adobe-knockout="false" d="M697.369,0l-9.677,15h4.333l9.677-15H697.369z"/>
			<path  a:adobe-knockout="false" d="M705.098,0l-9.677,15h4.333l9.677-15H705.098z"/>
			<path  a:adobe-knockout="false" d="M712.828,0l-9.677,15h4.333l9.677-15H712.828z"/>
			<path  a:adobe-knockout="false" d="M720.557,0l-9.677,15h4.333l9.677-15H720.557z"/>
			<path  a:adobe-knockout="false" d="M728.286,0l-9.677,15h4.333l9.677-15H728.286z"/>
			<path  a:adobe-knockout="false" d="M736.016,0l-9.677,15h4.333l9.677-15H736.016z"/>
			<path  a:adobe-knockout="false" d="M743.745,0l-9.677,15h4.333l9.677-15H743.745z"/>
			<path  a:adobe-knockout="false" d="M751.475,0l-9.677,15h4.333l9.677-15H751.475z"/>
			<path  a:adobe-knockout="false" d="M759.204,0l-9.677,15h4.333l9.677-15H759.204z"/>
			<path  a:adobe-knockout="false" d="M766.933,0l-9.677,15h4.333l9.677-15H766.933z"/>
			<path  a:adobe-knockout="false" d="M774.663,0l-9.677,15h4.333l9.677-15H774.663z"/>
			<path  a:adobe-knockout="false" d="M782.392,0l-9.677,15h4.333l9.677-15H782.392z"/>
			<path  a:adobe-knockout="false" d="M790.121,0l-9.677,15h4.333l9.677-15H790.121z"/>
			<path  a:adobe-knockout="false" d="M797.851,0l-9.677,15h4.333l9.677-15H797.851z"/>
			<path  a:adobe-knockout="false" d="M805.58,0l-9.677,15h4.333l9.677-15H805.58z"/>
			<path  a:adobe-knockout="false" d="M813.31,0l-9.677,15h4.333l9.677-15H813.31z"/>
			<path  a:adobe-knockout="false" d="M821.039,0l-9.677,15h4.333l9.677-15H821.039z"/>
			<path  a:adobe-knockout="false" d="M828.768,0l-9.677,15h4.333l9.677-15H828.768z"/>
		</g>
		<path d="M835.685,0l-9.677,15h18.215L853.9,0H835.685z"/>
	</g>
</svg>
