<?xml version="1.0" encoding="iso-8859-1"?>
<!-- Generator: Adobe Illustrator 10.0, SVG Export Plug-In . SVG Version: 3.0.0 Build 76)  -->
<!DOCTYPE svg PUBLIC "-//W3C//DTD SVG 1.0//EN"    "http://www.w3.org/TR/2001/REC-SVG-20010904/DTD/svg10.dtd" [
	<!ENTITY ns_flows "http://ns.adobe.com/Flows/1.0/">
	<!ENTITY ns_extend "http://ns.adobe.com/Extensibility/1.0/">
	<!ENTITY ns_ai "http://ns.adobe.com/AdobeIllustrator/10.0/">
	<!ENTITY ns_svg "http://www.w3.org/2000/svg">
	<!ENTITY ns_xlink "http://www.w3.org/1999/xlink">
]>
<svg  xmlns:x="&ns_extend;" xmlns:i="&ns_ai;" 
	 xmlns="&ns_svg;" xmlns:xlink="&ns_xlink;" xmlns:a="http://ns.adobe.com/AdobeSVGViewerExtensions/3.0/" width="102" height="102"
	 viewBox="-0.14 -0.223 102 102" overflow="visible" enable-background="new -0.14 -0.223 102 102" xml:space="preserve">
	<g id="&#x30EC;&#x30A4;&#x30E4;&#x30FC;_1_2_">
		<path d="M69.828,0H29.696L0,29.696v41.996l29.696,29.696h41.996l29.696-29.696V29.696L71.692,0H69.828z M67.964,9
			c2.263,2.263,22.16,22.16,24.423,24.423c0,3.201,0,31.34,0,34.541c-2.263,2.263-22.16,22.16-24.423,24.423
			c-3.201,0-31.34,0-34.541,0C31.16,90.125,11.263,70.228,9,67.964c0-3.201,0-31.34,0-34.541C11.263,31.16,31.16,11.263,33.423,9
			C36.625,9,64.763,9,67.964,9z"/>
	</g>
</svg>
