<?xml version="1.0" encoding="iso-8859-1"?>
<!-- Generator: Adobe Illustrator 10.0, SVG Export Plug-In . SVG Version: 3.0.0 Build 76)  -->
<!DOCTYPE svg PUBLIC "-//W3C//DTD SVG 1.0//EN"    "http://www.w3.org/TR/2001/REC-SVG-20010904/DTD/svg10.dtd" [
	<!ENTITY ns_flows "http://ns.adobe.com/Flows/1.0/">
	<!ENTITY ns_extend "http://ns.adobe.com/Extensibility/1.0/">
	<!ENTITY ns_ai "http://ns.adobe.com/AdobeIllustrator/10.0/">
	<!ENTITY ns_svg "http://www.w3.org/2000/svg">
	<!ENTITY ns_xlink "http://www.w3.org/1999/xlink">
]>
<svg  xmlns:x="&ns_extend;" xmlns:i="&ns_ai;" 
	 xmlns="&ns_svg;" xmlns:xlink="&ns_xlink;" xmlns:a="http://ns.adobe.com/AdobeSVGViewerExtensions/3.0/" width="79" height="42"
	 viewBox="0.393 0.088 79 42" overflow="visible" enable-background="new 0.393 0.088 79 42" xml:space="preserve">
	<g id="&#x30EC;&#x30A4;&#x30E4;&#x30FC;_1_2_">
		<path d="M22.909,25.588h3v-11h-3V25.588z"/>
		<path d="M30.545,25.588h3v-11h-3V25.588z"/>
		<path d="M15.273,25.588h3v-11h-3V25.588z"/>
		<path d="M3,3.28l-3-3v41.808h0.04L3,39.128V3.28z"/>
		<path d="M10.636,14.588h-3v11h3V14.588z"/>
		<path d="M45.818,25.588h3v-11h-3V25.588z"/>
		<path d="M68.727,25.588h3v-11h-3V25.588z"/>
		<path d="M61.091,25.588h3v-11h-3V25.588z"/>
		<path d="M53.455,25.588h3v-11h-3V25.588z"/>
		<path d="M38.182,1.458v24.13h3V1.542L39.64,0L38.182,1.458z"/>
		<path d="M79.364,42.088v-42l-3,2.744v36.267l2.99,2.989H79.364z"/>
	</g>
</svg>
