<?xml version="1.0" encoding="iso-8859-1"?>
<!-- Generator: Adobe Illustrator 10.0, SVG Export Plug-In . SVG Version: 3.0.0 Build 76)  -->
<!DOCTYPE svg PUBLIC "-//W3C//DTD SVG 1.0//EN"    "http://www.w3.org/TR/2001/REC-SVG-20010904/DTD/svg10.dtd" [
	<!ENTITY ns_flows "http://ns.adobe.com/Flows/1.0/">
	<!ENTITY ns_extend "http://ns.adobe.com/Extensibility/1.0/">
	<!ENTITY ns_ai "http://ns.adobe.com/AdobeIllustrator/10.0/">
	<!ENTITY ns_svg "http://www.w3.org/2000/svg">
	<!ENTITY ns_xlink "http://www.w3.org/1999/xlink">
]>
<svg  xmlns:x="&ns_extend;" xmlns:i="&ns_ai;" 
	 xmlns="&ns_svg;" xmlns:xlink="&ns_xlink;" xmlns:a="http://ns.adobe.com/AdobeSVGViewerExtensions/3.0/" width="614" height="54"
	 viewBox="-0.336 -0.167 614 54" overflow="visible" enable-background="new -0.336 -0.167 614 54" xml:space="preserve">
	<g id="&#x30EC;&#x30A4;&#x30E4;&#x30FC;_1_2_">
		<path d="M479.894,18l9.677,15h10.215l-9.677-15H479.894z M348.483,9l-3.871,6h-12.408l-13.548,21H459l-13.548-21h60.334
			l10.161,15.75h0.082L506.835,45H103.909l-5.806-9h96.241l-7.742-12h8.204l7.299,11.313L202.548,36h113.248l13.548-21h-17.471
			l5.806-9H405l-3.871-6H233.741l-9.677,15h-6.882l-3.871-6H103.333l-3.871,6H84.555l-3.871-6H0l5.807,9h59.806L54,36h31.533
			l11.612,18h416.454l0.443-0.687L536.824,18h70.691c2.125-2.996,4.232-5.995,6.315-9H348.483z M333,33h-8.838l9.677-15h8.838
			L333,33z M453.494,33h-89.459l9.677-15h70.106L453.494,33z M304.464,6h3.57l-5.806,9h-3.57L304.464,6z M290.679,6h3.57l-5.806,9
			h-3.57L290.679,6z M277.464,6h3.57l-5.806,9h-3.57L277.464,6z M260.905,6h6.344l-5.806,9h-6.344L260.905,6z M59.506,33l9.677-15
			h4.738l9.677,15H59.506z M96.167,33L86.49,18h11.037l-3.871,6h89.375l5.806,9H96.167z M452.894,18l9.677,15h10.215l-9.677-15
			H452.894z M466.679,18l9.677,15H486l-9.677-15H466.679z M513,33l-9.677-15h-9.644l9.677,15H513z"/>
	</g>
</svg>
